<?xml version="1.0" encoding="UTF-8"?>
<svg id="Layer_2" data-name="Layer 2" xmlns="http://www.w3.org/2000/svg" viewBox="0 0 29.62 46.98">
  <defs>
    <style>
      .cls-1 {
        fill: #fff;
        stroke-width: 0px;
      }

      .cls-2 {
        stroke-width: .93px;
      }

      .cls-2, .cls-3 {
        fill: none;
        stroke: #fff;
        stroke-miterlimit: 10;
      }

      .cls-3 {
        stroke-width: .33px;
      }
    </style>
  </defs>
  <g id="Layer_1-2" data-name="Layer 1">
    <g>
      <g>
        <path class="cls-1" d="m14.24,30.36s.1,0,.14,0c.06,0,.12,0,.17,0,.04,0,.08,0,.13,0s.08,0,.13,0c3.39,0,6.46-1.38,8.67-3.61,1.33-1.34,2.34-2.98,2.94-4.82.39-1.19.59-2.46.59-3.77,0-3.94-1.86-7.43-4.75-9.66l1.23-2.13c3.62,2.66,5.96,6.95,5.96,11.79,0,8.1-6.55,14.65-14.65,14.65-2.09,0-4.07-.44-5.87-1.22l1.23-2.13s.09.04.13.05c.15.06.29.11.44.17.01,0,.02,0,.03.01.07.02.14.05.21.07.05.01.09.03.14.04.05.02.09.03.14.04,0,0,0,0,0,0,0,0,0,0,0,0,.04.01.08.02.12.04.04.01.08.02.12.03.2.06.41.11.61.16.09.02.19.04.28.06,0,0,.02,0,.03,0,.09.02.18.03.27.05.09.02.18.03.27.05,0,0,.02,0,.03,0,.09.01.19.02.28.04,0,0,.02,0,.02,0,.1.01.19.02.29.03.07,0,.14.01.21.02.07,0,.14.01.22.02.07,0,.15,0,.22.01Z"/>
        <path class="cls-1" d="m26.58.19l1.59,7.8s-1.83-2.29-4.24-3.92c-2.25-1.51-5.15-2.29-5.15-2.29L26.58.19Z"/>
        <path class="cls-1" d="m3.24,36.06s0,.02,0,.03c.03.09.06.17.09.26.03.09.06.17.1.26,0,0,0,.02.01.03.03.09.07.17.11.26,0,0,0,.02,0,.02.04.09.08.18.12.26.03.06.06.13.09.19.02.03.03.07.05.1.02.03.03.06.05.1s.03.07.05.1c.02.03.03.07.05.1,0,.01.01.02.02.03.01.02.02.04.03.06,0,.01.01.02.02.03.03.05.05.1.08.15.04.07.08.15.12.22,2.71,4.7,8.07,6.91,13.11,5.84,1.22-.26,2.43-.71,3.57-1.37,3.41-1.97,5.51-5.33,6-8.94h2.46c-.5,4.46-3.04,8.64-7.24,11.06-7.01,4.05-15.96,1.65-20.01-5.36-1.04-1.81-1.66-3.75-1.88-5.7h2.46c0,.07.02.14.03.22.02.14.05.29.07.43h0c.01.08.03.15.04.22,0,0,0,.02,0,.02.02.09.04.17.06.26,0,0,0,.01,0,.02.02.08.04.16.06.24.05.2.11.4.17.61.03.09.06.18.09.27Z"/>
        <path class="cls-1" d="m21.38,5.07l-1.22,2.12c-1.61-.79-3.43-1.23-5.34-1.23-2.68,0-5.16.86-7.18,2.33-3.05,2.22-5.03,5.82-5.03,9.88,0,1.32.21,2.59.59,3.77.05.15.1.3.16.46.03.07.05.15.08.22.02.06.05.12.07.17.07.17.15.34.23.52.03.06.06.13.09.19.18.38.39.75.61,1.11.03.05.06.09.09.14.04.06.07.12.11.17.05.07.09.14.14.21.07.1.14.2.21.29.07.1.15.2.22.29.04.05.09.11.13.16.05.07.11.13.17.2.03.04.06.07.09.11.04.04.07.08.11.13.04.04.07.08.11.12.05.06.1.11.16.17.05.05.09.09.14.14.02.02.04.04.05.06.05.04.09.09.14.14.07.07.14.14.22.2.04.04.09.08.13.12.42.38.86.72,1.33,1.04l-1.22,2.12C2.78,27.79.16,23.29.16,18.17.16,10.07,6.71,3.52,14.81,3.52c2.36,0,4.59.56,6.57,1.55Z"/>
      </g>
      <g>
        <path class="cls-3" d="m10.75,29.68c-.13-.05-.25-.09-.38-.14-.02,0-.04-.02-.07-.03"/>
        <path class="cls-3" d="m11.12,29.81s-.09-.03-.14-.04c-.07-.02-.14-.05-.21-.07"/>
        <path class="cls-3" d="m11.39,29.89s-.08-.02-.12-.04c0,0,0,0,0,0"/>
        <path class="cls-3" d="m14.02,30.35c-.07,0-.14,0-.22-.02-.07,0-.14-.01-.21-.02"/>
        <path class="cls-3" d="m23.48,26.76c-2.21,2.23-5.28,3.61-8.67,3.61-.04,0-.09,0-.13,0"/>
        <path class="cls-3" d="m10.17,29.46l-1.23,2.13c1.8.79,3.78,1.22,5.87,1.22,8.1,0,14.65-6.55,14.65-14.65,0-4.84-2.34-9.13-5.96-11.79l-1.23,2.13"/>
        <path class="cls-3" d="m6.11,26.74s.04.04.05.06c.05.04.09.09.14.14.07.07.14.14.22.2.04.04.09.08.13.12.42.38.86.72,1.33,1.04l-1.22,2.12C2.78,27.79.16,23.29.16,18.17.16,10.07,6.71,3.52,14.81,3.52c2.36,0,4.59.56,6.57,1.55l-1.22,2.12c-1.61-.79-3.43-1.23-5.34-1.23-2.68,0-5.16.86-7.18,2.33-3.05,2.22-5.03,5.82-5.03,9.88,0,1.32.21,2.59.59,3.77.05.15.1.3.16.46.03.07.05.15.08.22.02.06.05.12.07.17.07.17.15.34.23.52.03.06.06.13.09.19.18.38.39.75.61,1.11.03.05.06.09.09.14.04.06.07.12.11.17.05.07.09.14.14.21.07.1.14.2.21.29.07.1.15.2.22.29.04.05.09.11.13.16.05.07.11.13.17.2.03.04.06.07.09.11.04.04.07.08.11.13.04.04.07.08.11.12.05.06.1.11.16.17"/>
        <path class="cls-3" d="m6.11,26.74s-.09-.09-.14-.14"/>
        <path class="cls-3" d="m10.17,29.46s.09.04.13.05c.15.06.29.11.44.17.01,0,.02,0,.03.01.07.02.14.05.21.07.05.02.09.03.14.04.05.02.09.03.14.04,0,0,0,0,0,0,0,0,0,0,0,0,.04.01.08.02.12.04.04.01.08.02.12.03.2.06.41.11.61.16.09.02.19.04.28.06,0,0,.02,0,.03,0,.09.02.18.03.27.05.09.02.18.03.27.05,0,0,.02,0,.03,0,.09.01.19.02.28.04,0,0,.02,0,.02,0,.1.01.19.02.29.03.07,0,.14.01.21.02.07,0,.14.01.22.02.07,0,.15,0,.22.01.05,0,.1,0,.14,0,.06,0,.12,0,.17,0,.04,0,.08,0,.13,0,.04,0,.08,0,.13,0,3.39,0,6.46-1.38,8.67-3.61,1.33-1.34,2.34-2.98,2.94-4.82"/>
        <path class="cls-3" d="m22.27,8.5c2.89,2.23,4.75,5.73,4.75,9.66,0,1.32-.21,2.59-.59,3.77"/>
        <path class="cls-2" d="m14.81,27.93c4.34,0,8.02-2.83,9.29-6.75.31-.95.47-1.96.47-3.02,0-3.03-1.38-5.74-3.54-7.53"/>
        <path class="cls-2" d="m9.07,10.26c1.61-1.17,3.6-1.86,5.74-1.86,1.47,0,2.87.32,4.12.91"/>
        <path class="cls-2" d="m14.81,27.93c-1.2,0-2.35-.22-3.41-.61"/>
        <path class="cls-2" d="m9.07,10.26c-2.44,1.77-4.02,4.65-4.02,7.9,0,1.06.17,2.07.47,3.02.66,2.03,1.97,3.77,3.68,4.98"/>
        <path class="cls-3" d="m2.81,34.43c-.02-.14-.05-.29-.07-.43-.01-.07-.02-.14-.03-.22H.25c.22,1.95.83,3.89,1.88,5.7,4.05,7.01,13,9.41,20.01,5.36,4.19-2.42,6.74-6.59,7.24-11.06h-2.46"/>
        <path class="cls-3" d="m2.86,34.65c-.02-.07-.03-.13-.04-.2"/>
        <path class="cls-3" d="m2.92,34.93c-.02-.09-.04-.17-.06-.26"/>
        <path class="cls-3" d="m3.91,37.66s-.03-.07-.05-.1-.03-.06-.05-.1"/>
        <path class="cls-3" d="m4.24,38.26c-.04-.07-.08-.15-.12-.22-.03-.05-.06-.1-.08-.15,0-.01-.01-.02-.02-.03-.01-.02-.02-.04-.03-.06"/>
        <path class="cls-3" d="m2.71,33.79c0,.07.02.14.03.22.02.14.05.29.07.43h0c.01.08.03.15.04.22,0,0,0,.02,0,.02.02.09.04.17.06.26,0,0,0,.01,0,.02.02.08.04.16.06.24.05.2.11.4.17.61.03.09.06.18.09.27,0,0,0,.02,0,.03.03.09.06.17.09.26.03.09.06.17.1.26,0,0,0,.02.01.03.03.09.07.17.11.26,0,0,0,.02,0,.02.04.09.08.18.12.26.03.06.06.13.09.19.02.03.03.07.05.1.02.03.03.06.05.1s.03.07.05.1c.02.03.03.07.05.1,0,.01.01.02.02.03.01.02.02.04.03.06,0,.01.01.02.02.03.03.05.05.1.08.15.04.07.08.15.12.22,2.71,4.7,8.07,6.91,13.11,5.84"/>
        <path class="cls-3" d="m26.91,33.79c-.49,3.62-2.59,6.97-6,8.94-1.14.66-2.34,1.11-3.57,1.37"/>
        <path class="cls-2" d="m24.44,33.79c-.47,2.77-2.12,5.31-4.75,6.83-.91.53-1.87.89-2.85,1.1"/>
        <path class="cls-2" d="m6.35,37.04c2.17,3.76,6.46,5.53,10.49,4.67"/>
        <path class="cls-2" d="m6.35,37.04c-.6-1.04-.99-2.14-1.18-3.25"/>
        <path class="cls-3" d="m28.17,7.99s-1.83-2.29-4.24-3.92c-2.25-1.51-5.15-2.29-5.15-2.29L26.58.19l1.59,7.8Z"/>
      </g>
    </g>
  </g>
</svg>