<?xml version="1.0" encoding="utf-8"?>
<!-- Generator: Adobe Illustrator 27.9.0, SVG Export Plug-In . SVG Version: 6.00 Build 0)  -->
<svg version="1.1" id="Layer_1" xmlns="http://www.w3.org/2000/svg" xmlns:xlink="http://www.w3.org/1999/xlink" x="0px" y="0px"
	 viewBox="0 0 50 50" style="enable-background:new 0 0 50 50;" xml:space="preserve">
<style type="text/css">
	.st0{fill:#FFFFFF;}
	.st1{fill:none;stroke:#FFFFFF;stroke-width:0.2307;stroke-miterlimit:10;}
	.st2{fill:none;stroke:#FFFFFF;stroke-width:0.6614;stroke-miterlimit:10;}
</style>
<circle cx="25" cy="25" r="24.93"/>
<g id="XMLID_00000077323470522055983920000012166208971628592779_">
	<g>
		<path class="st0" d="M17.51,35.46c1.92,3.33,5.72,4.9,9.29,4.14c0.87-0.18,1.72-0.51,2.53-0.97c0.11-0.07,0.22-0.13,0.33-0.2
			c0.11-0.07,0.22-0.14,0.32-0.21c0.07-0.05,0.14-0.1,0.21-0.15c0.17-0.13,0.34-0.26,0.49-0.4c0.06-0.06,0.13-0.11,0.19-0.17
			c0.74-0.68,1.34-1.47,1.79-2.33c0.06-0.11,0.11-0.22,0.16-0.33c0.09-0.18,0.17-0.37,0.24-0.56c0.04-0.11,0.09-0.23,0.12-0.34
			c0.03-0.08,0.05-0.15,0.08-0.23c0.14-0.46,0.25-0.94,0.31-1.42h1.74c-0.35,3.16-2.16,6.12-5.13,7.84
			c-4.97,2.87-11.31,1.17-14.18-3.8c-0.74-1.28-1.18-2.66-1.33-4.04l1.74,0c0.01,0.05,0.01,0.1,0.02,0.15
			c0.02,0.1,0.03,0.2,0.05,0.3c0,0.01,0,0.01,0,0.02c0.01,0.05,0.02,0.09,0.03,0.14c0.01,0.05,0.02,0.1,0.03,0.14
			c0,0.02,0.01,0.04,0.01,0.05c0,0,0,0,0,0.01c0,0,0,0,0,0.01c0.01,0.03,0.01,0.06,0.02,0.09c0.01,0.03,0.01,0.06,0.02,0.08
			c0.01,0.04,0.02,0.07,0.03,0.11c0.03,0.11,0.06,0.21,0.09,0.32c0.01,0.03,0.02,0.06,0.03,0.1c0.01,0.03,0.02,0.06,0.03,0.1
			c0,0,0,0.01,0,0.01c0,0,0,0.01,0,0.01c0.02,0.06,0.04,0.12,0.07,0.19c0.02,0.06,0.04,0.12,0.07,0.18c0,0.01,0.01,0.01,0.01,0.02
			c0.02,0.06,0.05,0.12,0.08,0.18c0,0.01,0,0.01,0.01,0.02c0.03,0.06,0.05,0.13,0.08,0.19c0.01,0.02,0.02,0.05,0.03,0.07
			c0.01,0.02,0.02,0.05,0.03,0.07c0.01,0.02,0.02,0.05,0.03,0.07c0.01,0.02,0.02,0.05,0.03,0.07c0.02,0.05,0.05,0.09,0.07,0.14
			c0.01,0.02,0.02,0.03,0.02,0.05c0.01,0.02,0.02,0.03,0.02,0.05c0.01,0.02,0.02,0.04,0.03,0.05c0.01,0.02,0.02,0.04,0.03,0.05
			C17.45,35.35,17.48,35.41,17.51,35.46z"/>
		<path class="st0" d="M33.57,32.29L33.57,32.29c-0.06,0.48-0.17,0.95-0.31,1.42C33.4,33.24,33.51,32.77,33.57,32.29z"/>
		<path class="st0" d="M33.19,33.94c-0.04,0.11-0.08,0.23-0.12,0.34C33.11,34.16,33.15,34.05,33.19,33.94z"/>
		<path class="st0" d="M14.62,21.22c0-5.74,4.64-10.38,10.38-10.38c1.67,0,3.25,0.4,4.65,1.1l-0.87,1.5
			c-1.14-0.56-2.43-0.87-3.79-0.87c-1.9,0-3.66,0.61-5.09,1.65c-2.16,1.57-3.57,4.12-3.57,7c0,0.93,0.15,1.83,0.42,2.68
			c0.03,0.11,0.07,0.22,0.11,0.32c0.02,0.05,0.04,0.11,0.06,0.16c0.02,0.04,0.03,0.08,0.05,0.12c0.05,0.12,0.1,0.24,0.16,0.37
			c0.02,0.05,0.04,0.09,0.06,0.13c0.13,0.27,0.27,0.53,0.43,0.78c0.02,0.03,0.04,0.06,0.06,0.1c0.03,0.04,0.05,0.08,0.08,0.12
			c0.03,0.05,0.07,0.1,0.1,0.15c0.05,0.07,0.1,0.14,0.15,0.21c0.05,0.07,0.1,0.14,0.16,0.21c0.03,0.04,0.06,0.08,0.09,0.12
			c0.04,0.05,0.08,0.09,0.12,0.14c0.02,0.03,0.05,0.05,0.07,0.08c0.03,0.03,0.05,0.06,0.08,0.09c0.02,0.03,0.05,0.06,0.08,0.09
			c0.04,0.04,0.07,0.08,0.11,0.12c0.03,0.03,0.06,0.07,0.1,0.1c0.01,0.01,0.03,0.03,0.04,0.04c0.03,0.03,0.06,0.06,0.1,0.1
			c0.05,0.05,0.1,0.1,0.15,0.14c0.03,0.03,0.06,0.06,0.09,0.08c0.3,0.27,0.61,0.51,0.94,0.74l-0.87,1.5
			C16.47,28.04,14.62,24.85,14.62,21.22z"/>
		<path class="st0" d="M34.47,14.01c0,0-1.29-1.63-3.01-2.77c-1.59-1.07-3.65-1.62-3.65-1.62l5.53-1.13L34.47,14.01z"/>
		<path class="st0" d="M23.51,29.74c0.06,0.01,0.13,0.02,0.19,0.03c0.01,0,0.01,0,0.02,0c0.03,0,0.07,0.01,0.1,0.01
			c0.03,0,0.07,0.01,0.1,0.01c0,0,0.01,0,0.01,0c0,0,0.01,0,0.01,0c0.03,0,0.07,0.01,0.1,0.01c0.03,0,0.07,0.01,0.1,0.01
			c0.02,0,0.05,0,0.07,0.01c0.02,0,0.05,0,0.07,0.01c0.03,0,0.05,0,0.08,0.01c0.03,0,0.05,0,0.08,0.01c0.05,0,0.1,0.01,0.16,0.01
			c0.03,0,0.07,0,0.1,0c0.04,0,0.08,0,0.12,0c0.06,0,0.12,0,0.18,0c3.85,0,7.1-2.5,8.23-5.98c0.27-0.84,0.42-1.74,0.42-2.68
			c0-2.79-1.32-5.27-3.36-6.85l0.87-1.51c2.56,1.89,4.22,4.93,4.22,8.36c0,5.74-4.64,10.38-10.38,10.38c-1.48,0-2.89-0.31-4.16-0.87
			l0.87-1.51c0.05,0.02,0.1,0.04,0.14,0.06c0.09,0.04,0.18,0.07,0.27,0.1c0.01,0,0.01,0,0.02,0.01c0.05,0.02,0.1,0.03,0.15,0.05
			c0.06,0.02,0.13,0.04,0.19,0.06c0,0,0.01,0,0.01,0c0.06,0.02,0.11,0.03,0.17,0.05c0.14,0.04,0.29,0.08,0.43,0.11
			c0.07,0.02,0.13,0.03,0.2,0.04c0.01,0,0.01,0,0.02,0C23.38,29.72,23.44,29.73,23.51,29.74z"/>
		<path class="st0" d="M32.82,34.83c-0.05,0.11-0.11,0.22-0.16,0.33C32.72,35.05,32.77,34.94,32.82,34.83z"/>
	</g>
	<g>
		<path class="st1" d="M22.13,29.38c-0.09-0.03-0.18-0.07-0.27-0.1"/>
		<path class="st1" d="M22.48,29.5c-0.06-0.02-0.13-0.04-0.19-0.06c-0.05-0.02-0.1-0.03-0.15-0.05"/>
		<path class="st1" d="M23.29,29.7c-0.07-0.01-0.13-0.03-0.2-0.04"/>
		<path class="st1" d="M23.93,29.8C23.92,29.8,23.92,29.8,23.93,29.8c-0.04-0.01-0.07-0.01-0.11-0.01c-0.03,0-0.07-0.01-0.1-0.01
			c-0.01,0-0.02,0-0.02,0"/>
		<path class="st1" d="M24.36,29.85c-0.03,0-0.05,0-0.08-0.01c-0.02,0-0.05,0-0.07-0.01c-0.02,0-0.05,0-0.07-0.01
			c-0.03,0-0.07-0.01-0.1-0.01"/>
		<path class="st1" d="M21.71,29.22l-0.87,1.51c1.27,0.56,2.68,0.87,4.16,0.87c5.74,0,10.38-4.64,10.38-10.38
			c0-3.43-1.66-6.47-4.22-8.36l-0.87,1.51"/>
		<path class="st1" d="M18.84,27.29c0.01,0.01,0.03,0.03,0.04,0.04c0.03,0.03,0.06,0.06,0.1,0.1c0.05,0.05,0.1,0.1,0.15,0.14
			c0.03,0.03,0.06,0.06,0.09,0.08c0.3,0.27,0.61,0.51,0.94,0.74l-0.87,1.5c-2.81-1.86-4.67-5.05-4.67-8.67
			c0-5.74,4.64-10.38,10.38-10.38c1.67,0,3.25,0.4,4.65,1.1l-0.87,1.5c-1.14-0.56-2.43-0.87-3.79-0.87c-1.9,0-3.66,0.61-5.09,1.65
			c-2.16,1.57-3.57,4.12-3.57,7c0,0.93,0.15,1.83,0.42,2.68c0.03,0.11,0.07,0.22,0.11,0.32c0.02,0.05,0.04,0.11,0.06,0.16
			c0.02,0.04,0.03,0.08,0.05,0.12c0.05,0.12,0.1,0.24,0.16,0.37c0.02,0.05,0.04,0.09,0.06,0.13c0.13,0.27,0.27,0.53,0.43,0.78
			c0.02,0.03,0.04,0.06,0.06,0.1c0.03,0.04,0.05,0.08,0.08,0.12c0.03,0.05,0.07,0.1,0.1,0.15c0.05,0.07,0.1,0.14,0.15,0.21
			c0.05,0.07,0.1,0.14,0.16,0.21c0.03,0.04,0.06,0.08,0.09,0.12c0.04,0.05,0.08,0.09,0.12,0.14c0.02,0.03,0.05,0.05,0.07,0.08
			c0.03,0.03,0.05,0.06,0.08,0.09c0.02,0.03,0.05,0.06,0.08,0.09c0.04,0.04,0.07,0.08,0.11,0.12C18.77,27.22,18.8,27.26,18.84,27.29
			z"/>
		<path class="st1" d="M18.84,27.29c-0.03-0.03-0.06-0.07-0.1-0.1"/>
		<path class="st1" d="M21.71,29.22c0.05,0.02,0.1,0.04,0.14,0.06c0.09,0.04,0.18,0.07,0.27,0.1c0.01,0,0.01,0,0.02,0.01
			c0.05,0.02,0.1,0.03,0.15,0.05c0.06,0.02,0.13,0.04,0.19,0.06c0,0,0.01,0,0.01,0c0.06,0.02,0.11,0.03,0.17,0.05
			c0.14,0.04,0.29,0.08,0.43,0.11c0.07,0.02,0.13,0.03,0.2,0.04c0.01,0,0.01,0,0.02,0c0.06,0.01,0.13,0.02,0.19,0.04
			c0.06,0.01,0.13,0.02,0.19,0.03c0.01,0,0.01,0,0.02,0c0.03,0,0.07,0.01,0.1,0.01c0.03,0,0.07,0.01,0.1,0.01c0,0,0.01,0,0.01,0
			c0,0,0.01,0,0.01,0c0.03,0,0.07,0.01,0.1,0.01c0.03,0,0.07,0.01,0.1,0.01c0.02,0,0.05,0.01,0.07,0.01c0.02,0,0.05,0,0.07,0.01
			c0.03,0,0.05,0,0.08,0.01c0.03,0,0.05,0,0.08,0.01c0.05,0,0.1,0.01,0.16,0.01c0.03,0,0.07,0,0.1,0c0.04,0,0.08,0,0.12,0
			c0.06,0,0.12,0,0.18,0c3.85,0,7.1-2.5,8.23-5.98"/>
		<path class="st1" d="M30.29,14.37c2.05,1.58,3.36,4.06,3.36,6.85c0,0.93-0.15,1.83-0.42,2.68"/>
		<path class="st2" d="M25,28.14c3.08,0,5.68-2,6.58-4.78c0.22-0.67,0.34-1.39,0.34-2.14c0-2.15-0.98-4.06-2.51-5.33"/>
		<path class="st2" d="M20.93,15.62c1.14-0.83,2.55-1.32,4.07-1.32c1.04,0,2.03,0.23,2.92,0.64"/>
		<path class="st2" d="M25,28.14c-0.85,0-1.66-0.15-2.41-0.43"/>
		<path class="st2" d="M20.93,15.62c-1.73,1.26-2.85,3.3-2.85,5.6c0,0.75,0.12,1.47,0.34,2.14c0.47,1.44,1.39,2.67,2.61,3.53"/>
		<path class="st1" d="M16.5,32.74c-0.02-0.1-0.03-0.2-0.05-0.3c-0.01-0.05-0.02-0.1-0.02-0.15l-1.74,0
			c0.15,1.38,0.59,2.76,1.33,4.04c2.87,4.97,9.21,6.67,14.18,3.8c2.97-1.72,4.77-4.67,5.13-7.84h-1.74h0
			c-0.06,0.48-0.17,0.95-0.31,1.42"/>
		<path class="st1" d="M16.57,33.1C16.57,33.1,16.57,33.1,16.57,33.1c-0.01-0.02-0.01-0.04-0.01-0.06c-0.01-0.05-0.02-0.1-0.03-0.14
			c-0.01-0.05-0.02-0.09-0.03-0.14"/>
		<path class="st1" d="M16.64,33.38c-0.01-0.04-0.02-0.07-0.03-0.11c-0.01-0.03-0.01-0.06-0.02-0.08"/>
		<path class="st1" d="M16.8,33.91C16.8,33.9,16.8,33.9,16.8,33.91c-0.01-0.04-0.02-0.07-0.03-0.11"/>
		<path class="st1" d="M17.21,34.9c-0.01-0.02-0.02-0.05-0.03-0.07c-0.01-0.02-0.02-0.04-0.03-0.07"/>
		<path class="st1" d="M17.39,35.25c-0.01-0.02-0.02-0.04-0.03-0.05c-0.01-0.02-0.02-0.03-0.02-0.05"/>
		<path class="st1" d="M30.19,38.06c-0.07,0.05-0.14,0.1-0.21,0.15c-0.1,0.07-0.21,0.15-0.32,0.21"/>
		<path class="st1" d="M30.87,37.49c-0.06,0.06-0.12,0.11-0.19,0.17"/>
		<path class="st1" d="M32.82,34.83c-0.05,0.11-0.11,0.22-0.16,0.33"/>
		<path class="st1" d="M33.19,33.94c-0.04,0.11-0.08,0.23-0.12,0.34"/>
		<path class="st1" d="M16.42,32.29c0.01,0.05,0.01,0.1,0.02,0.15c0.02,0.1,0.03,0.2,0.05,0.3c0,0.01,0,0.01,0,0.02
			c0.01,0.05,0.02,0.09,0.03,0.14c0.01,0.05,0.02,0.1,0.03,0.14c0,0.02,0.01,0.04,0.01,0.05c0,0,0,0,0,0.01c0,0,0,0,0,0.01
			c0.01,0.03,0.01,0.06,0.02,0.09c0.01,0.03,0.01,0.06,0.02,0.08c0.01,0.04,0.02,0.07,0.03,0.11c0.03,0.11,0.06,0.21,0.09,0.32
			c0.01,0.03,0.02,0.06,0.03,0.1c0.01,0.03,0.02,0.06,0.03,0.1c0,0,0,0.01,0,0.01c0,0,0,0.01,0,0.01c0.02,0.06,0.04,0.12,0.07,0.19
			c0.02,0.06,0.04,0.12,0.07,0.18c0,0.01,0.01,0.01,0.01,0.02c0.02,0.06,0.05,0.12,0.08,0.18c0,0.01,0,0.01,0.01,0.02
			c0.03,0.06,0.05,0.13,0.08,0.19c0.01,0.02,0.02,0.05,0.03,0.07c0.01,0.02,0.02,0.05,0.03,0.07c0.01,0.02,0.02,0.05,0.03,0.07
			c0.01,0.02,0.02,0.05,0.03,0.07c0.02,0.05,0.05,0.09,0.07,0.14c0.01,0.02,0.02,0.03,0.02,0.05c0.01,0.02,0.02,0.03,0.02,0.04
			c0.01,0.02,0.02,0.04,0.03,0.05c0.01,0.02,0.02,0.04,0.03,0.05c0.03,0.05,0.06,0.1,0.09,0.16c1.92,3.33,5.72,4.9,9.29,4.14"/>
		<path class="st1" d="M33.57,32.29c-0.06,0.48-0.17,0.95-0.31,1.42c-0.02,0.08-0.05,0.15-0.08,0.23c-0.04,0.11-0.08,0.23-0.12,0.34
			c-0.07,0.19-0.15,0.37-0.24,0.56c-0.05,0.11-0.11,0.22-0.16,0.33c-0.45,0.86-1.05,1.65-1.79,2.33c-0.06,0.06-0.12,0.11-0.19,0.17
			c-0.16,0.14-0.32,0.27-0.49,0.4c-0.07,0.05-0.14,0.1-0.21,0.15c-0.1,0.07-0.21,0.15-0.32,0.21c-0.11,0.07-0.22,0.14-0.33,0.2
			c-0.81,0.47-1.66,0.79-2.53,0.97"/>
		<path class="st2" d="M31.83,32.29c-0.33,1.96-1.5,3.76-3.36,4.84c-0.65,0.37-1.33,0.63-2.02,0.78"/>
		<path class="st2" d="M19.01,34.59c1.54,2.67,4.58,3.92,7.43,3.31"/>
		<path class="st2" d="M19.01,34.59c-0.42-0.74-0.7-1.52-0.83-2.31"/>
		<path class="st1" d="M34.47,14.01c0,0-1.29-1.63-3.01-2.77c-1.59-1.07-3.65-1.62-3.65-1.62l5.53-1.13L34.47,14.01z"/>
	</g>
</g>
</svg>
